#!OML:ASF H:\Terrain\Patient Classification 1\Takeo\Monday\TakeoMonday.ASF
:FULLY-SPECIFIED
:DEGREES
1267
root 10.4091 17.507 -3.0374 -11.1192 -38.8513 7.08226
lowerback 6.53961 -0.961503 2.04986
upperback 1.32177 -1.06142 5.6072
thorax -2.23276 -0.558682 4.75444
lowerneck -13.9918 4.3944 0.846297
upperneck -5.13819 5.5454 -3.51702
head 0.845885 2.61914 -0.975915
rclavicle -2.71341e-014 2.8625e-014
rhumerus 31.0159 24.5323 -97.3749
rradius 67.2227
rwrist -50.0521
rhand -45.8478 19.3866
rfingers 7.12502
rthumb -18.5993 -9.74426
lclavicle -2.71341e-014 2.8625e-014
lhumerus 90.6225 -37.2013 35.3546
lradius 37.5771
lwrist 4.92772
lhand -39.7281 25.2264
lfingers 7.12502
lthumb -12.7056 54.8199
rfemur 1.75186 3.72526 12.9919
rtibia 28.4626
rfoot -19.9204 -14.5094
rtoes -10.587
lfemur -9.81209 8.60671 -20.13
ltibia 27.391
lfoot -7.33412 18.245
ltoes -1.38209
1268
root 10.4257 17.5026 -3.02041 -11.302 -38.4909 7.21177
lowerback 6.61637 -1.08025 1.70479
upperback 1.36074 -1.24021 5.733
thorax -2.21307 -0.646944 5.09992
lowerneck -13.4855 4.60446 0.297886
upperneck -5.60801 5.88797 -2.91029
head 0.57326 2.81824 -0.693239
rclavicle 2.98922e-014 -5.725e-014
rhumerus 31.0836 25.1593 -97.5706
rradius 66.9824
rwrist -50.4303
rhand -45.6161 18.7328
rfingers 7.12502
rthumb -18.3764 -10.4192
lclavicle 2.98922e-014 -5.725e-014
lhumerus 90.5588 -36.7212 34.7791
lradius 37.2708
lwrist 4.93583
lhand -40.4019 25.9933
lfingers 7.12502
lthumb -13.3552 55.5453
rfemur 1.93231 3.76683 12.816
rtibia 28.5426
rfoot -20.0595 -14.806
rtoes -10.921
lfemur -9.62116 8.49374 -20.4225
ltibia 27.4052
lfoot -7.09792 17.9973
ltoes -2.075
1269
root 10.4442 17.4947 -3.00101 -11.7241 -37.8944 7.85937
lowerback 6.43978 -1.18292 1.15404
upperback 1.47827 -1.42992 5.54322
thorax -1.96991 -0.740499 5.21969
lowerneck -13.9415 4.61951 0.656977
upperneck -5.24714 5.86602 -2.95612
head 0.779824 2.79405 -0.754001
rclavicle -1.07282e-014 -4.77083e-014
rhumerus 31.2766 25.5956 -97.6875
rradius 67.4207
rwrist -50.9705
rhand -45.5449 17.7586
rfingers 7.12502
rthumb -18.3079 -11.3999
lclavicle -1.07282e-014 -4.77083e-014
lhumerus 90.655 -36.3033 34.3138
lradius 36.8042
lwrist 4.68366
lhand -40.3471 27.1105
lfingers 7.12502
lthumb -13.3023 56.666
rfemur 2.09288 3.52799 12.0715
rtibia 28.6417
rfoot -20.375 -14.6742
rtoes -9.57947
lfemur -9.57282 8.09525 -21.2299
ltibia 27.3057
lfoot -6.99302 17.9364
ltoes -2.63581
1270
root 10.469 17.4912 -2.9811 -11.7655 -37.3211 8.15383
lowerback 6.12221 -1.19804 1.09361
upperback 1.52223 -1.47014 5.39632
thorax -1.74639 -0.761383 5.09056
lowerneck -14.1441 4.54685 0.800224
upperneck -4.99003 5.75801 -2.9304
head 0.900041 2.73652 -0.768161
rclavicle 1.09145e-014 -4.13472e-014
rhumerus 31.599 25.691 -97.8231
rradius 67.3974
rwrist -51.3227
rhand -45.3249 17.2517
rfingers 7.12502
rthumb -18.0962 -11.9264
lclavicle 1.09145e-014 -4.13472e-014
lhumerus 90.8051 -36.2325 34.5067
lradius 36.0721
lwrist 4.04867
lhand -39.8451 28.0333
lfingers 7.12502
lthumb -12.8185 57.6197
rfemur 2.0829 3.22408 11.6182
rtibia 28.7086
rfoot -20.6497 -14.5757
rtoes -8.01773
lfemur -9.68446 7.64502 -21.7658
ltibia 27.0365
lfoot -6.78403 17.9499
ltoes -3.12084
1271
root 10.4897 17.4951 -2.96397 -11.7933 -36.8259 8.22398
lowerback 5.72005 -1.28375 1.47151
upperback 1.77584 -1.59611 5.07929
thorax -1.26974 -0.828729 4.53275
lowerneck -14.3806 4.50574 1.07262
upperneck -4.91489 5.66248 -2.81257
head 0.967773 2.68518 -0.776292
rclavicle -3.81915e-014 9.54166e-015
rhumerus 32.0238 25.8259 -98.4507
rradius 67.3575
rwrist -51.5252
rhand -45.1037 16.9854
rfingers 7.12502
rthumb -17.8834 -12.2124
lclavicle -3.81915e-014 9.54166e-015
lhumerus 91.249 -35.7832 33.5924
lradius 35.632
lwrist 4.05838
lhand -39.9093 28.3869
lfingers 7.12502
lthumb -12.8803 57.9695
rfemur 2.21372 2.98313 11.4015
rtibia 28.7018
rfoot -20.5638 -15.0519
rtoes -8.62391
lfemur -9.59599 7.33659 -22.0533
ltibia 26.7371
lfoot -6.52759 17.7862
ltoes -4.07076
